<svg width="120" height="120" viewBox="0 0 120 120" fill="none" xmlns="http://www.w3.org/2000/svg">
<path fill-rule="evenodd" clip-rule="evenodd" d="M71.4273 18.5732H48.5737C32.0052 18.5732 18.5737 32.0047 18.5737 48.5732V71.4268C18.5737 87.9953 32.0052 101.427 48.5737 101.427H71.4273C87.9958 101.427 101.427 87.9953 101.427 71.4268V48.5732C101.427 32.0047 87.9958 18.5732 71.4273 18.5732ZM48.5737 17.5732C31.4529 17.5732 17.5737 31.4524 17.5737 48.5732V71.4268C17.5737 88.5476 31.4529 102.427 48.5737 102.427H71.4273C88.5481 102.427 102.427 88.5476 102.427 71.4268V48.5732C102.427 31.4524 88.5481 17.5732 71.4273 17.5732H48.5737Z" fill="white"/>
<path fill-rule="evenodd" clip-rule="evenodd" d="M82.9787 23.6852L61.1126 17.0402C45.2599 12.2227 28.5034 21.1685 23.6858 37.0213L17.0409 58.8874C12.2234 74.7401 21.1692 91.4966 37.0219 96.3141L58.8881 102.959C74.7408 107.777 91.4973 98.8308 96.3148 82.9781L102.96 61.1119C107.777 45.2592 98.8314 28.5027 82.9787 23.6852ZM61.4033 16.0834C45.0222 11.1054 27.7071 20.3494 22.7291 36.7305L16.0841 58.5966C11.106 74.9778 20.35 92.2928 36.7312 97.2709L58.5973 103.916C74.9784 108.894 92.2935 99.6499 97.2716 83.2688L103.917 61.4027C108.895 45.0215 99.6506 27.7065 83.2695 22.7284L61.4033 16.0834Z" fill="white"/>
<path fill-rule="evenodd" clip-rule="evenodd" d="M91.7023 30.9875L72.346 18.8376C58.313 10.0291 39.7962 14.2644 30.9877 28.2975L18.8378 47.6537C10.0293 61.6868 14.2646 80.2035 28.2977 89.0121L47.6539 101.162C61.687 109.97 80.2038 105.735 89.0123 91.7021L101.162 72.3458C109.971 58.3127 105.735 39.796 91.7023 30.9875ZM72.8777 17.9906C58.3768 8.8885 39.2428 13.265 30.1407 27.7658L17.9908 47.1221C8.88871 61.6229 13.2652 80.7569 27.766 89.859L47.1223 102.009C61.6231 111.111 80.7571 106.735 89.8592 92.2337L102.009 72.8774C111.111 58.3766 106.735 39.2426 92.2339 30.1405L72.8777 17.9906Z" fill="white"/>
<path fill-rule="evenodd" clip-rule="evenodd" d="M101.591 49.1856L90.1659 29.3929C81.8828 15.0435 63.5355 10.1257 49.186 18.4088L29.3934 29.8339C15.0439 38.117 10.1261 56.4643 18.4092 70.8138L29.8344 90.6065C38.1175 104.956 56.4648 109.874 70.8142 101.591L90.6069 90.1655C104.956 81.8824 109.874 63.5351 101.591 49.1856ZM91.032 28.893C82.4728 14.0652 63.5139 8.98352 48.6861 17.5427L28.8934 28.9679C14.0657 37.5271 8.98397 56.4859 17.5432 71.3137L28.9683 91.1064C37.5275 105.934 56.4864 111.016 71.3142 102.457L91.1068 91.0315C105.935 82.4723 111.016 63.5134 102.457 48.6857L91.032 28.893Z" fill="white"/>
<path fill-rule="evenodd" clip-rule="evenodd" d="M97.4603 38.9411L81.3673 22.7147C69.6999 10.9508 50.7052 10.8724 38.9412 22.5397L22.7148 38.6328C10.9508 50.3001 10.8725 69.2949 22.5398 81.0589L38.6329 97.2853C50.3002 109.049 69.295 109.128 81.0589 97.4603L97.2853 81.3672C109.049 69.6999 109.128 50.7051 97.4603 38.9411ZM82.0773 22.0105C70.0211 9.85446 50.3931 9.7735 38.237 21.8297L22.0106 37.9228C9.85453 49.979 9.77357 69.607 21.8298 81.7631L37.9229 97.9895C49.9791 110.146 69.607 110.227 81.7631 98.1703L97.9895 82.0772C110.146 70.021 110.227 50.393 98.1704 38.2369L82.0773 22.0105Z" fill="white"/>
<path fill-rule="evenodd" clip-rule="evenodd" d="M60.0005 101.427C82.8799 101.427 101.427 82.8794 101.427 60C101.427 37.1206 82.8799 18.5732 60.0005 18.5732C37.1211 18.5732 18.5737 37.1206 18.5737 60C18.5737 82.8794 37.1211 101.427 60.0005 101.427ZM60.0005 102.427C83.4322 102.427 102.427 83.4317 102.427 60C102.427 36.5684 83.4322 17.5732 60.0005 17.5732C36.5688 17.5732 17.5737 36.5684 17.5737 60C17.5737 83.4317 36.5688 102.427 60.0005 102.427Z" fill="white"/>
</svg>
