<svg width="120" height="120" viewBox="0 0 120 120" fill="none" xmlns="http://www.w3.org/2000/svg">
<path fill-rule="evenodd" clip-rule="evenodd" d="M95.7889 35.7887L102.382 67.9571L84.2115 95.7887L51.8708 102.128L24.0404 83.9584L17.7011 51.6162L36.0418 24.0402L68.2117 17.4472L95.7889 35.7887ZM68.0857 18.0938L36.4094 24.5857L18.3461 51.7447L24.5879 83.5895L51.9963 101.483L83.8426 95.2412L101.736 67.8341L95.2434 36.1563L68.0857 18.0938Z" fill="black"/>
<path fill-rule="evenodd" clip-rule="evenodd" d="M102.525 52.3442L95.5349 84.4286L67.6555 102.525L35.5162 95.2332L17.4204 67.355L24.7128 35.2143L52.6447 17.4204L84.7305 24.411L102.525 52.3442ZM84.3536 24.9514L52.7601 18.068L25.2505 35.5928L18.0703 67.2392L35.8918 94.6948L67.5397 101.875L94.9939 84.0547L101.878 52.4596L84.3536 24.9514Z" fill="black"/>
<path fill-rule="evenodd" clip-rule="evenodd" d="M60.063 95.9475C79.8817 95.9475 95.948 79.8813 95.948 60.0625C95.948 40.2438 79.8817 24.1776 60.063 24.1776C40.2443 24.1776 24.178 40.2438 24.178 60.0625C24.178 79.8813 40.2443 95.9475 60.063 95.9475ZM60.063 96.5557C80.2176 96.5557 96.5562 80.2172 96.5562 60.0625C96.5562 39.9079 80.2176 23.5693 60.063 23.5693C39.9084 23.5693 23.5698 39.9079 23.5698 60.0625C23.5698 80.2172 39.9084 96.5557 60.063 96.5557Z" fill="black"/>
</svg>
